<?xml version="1.0" encoding="UTF-8"?>
<svg id="Layer_2" data-name="Layer 2" xmlns="http://www.w3.org/2000/svg" viewBox="0 0 2048 2048">
  <defs>
    <style>
      .cls-1 {
        stroke-width: 16px;
      }

      .cls-1, .cls-2, .cls-3 {
        fill: #fff;
        stroke: #000;
        stroke-miterlimit: 10;
      }

      .cls-2 {
        stroke-width: 45px;
      }

      .cls-4 {
        opacity: .84;
      }
    </style>
  </defs>
  <ellipse class="cls-4" cx="1133.5" cy="1363.53" rx="733.21" ry="20.81"/>
  <g>
    <path class="cls-2" d="M1791,1221.26c0,21.93-17.81,39.7-39.74,39.65l-1189.06-2.59c-13.98-.03-25.3-11.37-25.3-25.36v-505.08c0-11.6,9.37-21.03,20.98-21.09l813.62-4.44c40.59-.22,78.9,18.75,103.33,51.18l112.75,149.67c12.78,16.96,29.35,30.7,48.39,40.12l101.17,50.03c33,16.32,53.88,49.94,53.88,86.75v141.15Z"/>
    <line class="cls-1" x1="1217.49" y1="702.24" x2="1217.49" y2="1261"/>
  </g>
  <rect x="1258.14" y="987.69" width="82.9" height="28.57" rx="14.28" ry="14.28"/>
  <path d="M1540.5,942.99l-124.55-175.38c-3.09-4.35-8.09-6.93-13.42-6.93h-120.36c-9.09,0-16.46,7.37-16.46,16.46v149.39c0,9.09,7.37,16.46,16.46,16.46h258.33Z"/>
  <g>
    <circle cx="1556.5" cy="1234.5" r="132"/>
    <circle class="cls-3" cx="1556.5" cy="1234.5" r="77"/>
    <circle cx="1556.5" cy="1234.5" r="47.25"/>
  </g>
  <g>
    <circle cx="802.5" cy="1234.5" r="132"/>
    <circle class="cls-3" cx="802.5" cy="1234.5" r="77"/>
    <circle cx="802.5" cy="1234.5" r="47.25"/>
  </g>
  <g>
    <polygon points="528.62 1221.37 315.04 1207.28 528.62 1193.63 528.62 1221.37"/>
    <polygon points="528.62 1157.52 226.97 1136.38 528.62 1116.13 528.62 1157.52"/>
    <polygon points="528.4 1080.47 159.37 1056.25 528.4 1037.75 528.4 1080.47"/>
    <polygon points="528.75 1002.1 131.98 978.32 528.75 960.69 528.75 1002.1"/>
    <polygon points="528.38 925.03 159.35 902.13 528.38 882.32 528.38 925.03"/>
    <polygon points="528.62 846.66 226.97 825.52 528.62 805.27 528.62 846.66"/>
    <polygon points="528.38 769.61 314.8 755.52 528.38 741.87 528.38 769.61"/>
  </g>
</svg>